{
    "asset" : {
        "generator" : "Khronos glTF Blender I/O v1.8.19",
        "version" : "2.0"
    },
    "scene" : 0,
    "scenes" : [
        {
            "name" : "Scene",
            "nodes" : [
                0
            ]
        }
    ],
    "nodes" : [
        {
            "mesh" : 0,
            "name" : "\u0415\u0426 \u041f\u0430\u0448\u0435 obj",
            "rotation" : [
                0.7071068286895752,
                0,
                0,
                0.7071067094802856
            ],
            "translation" : [
                -71.69801330566406,
                0,
                82.1593017578125
            ]
        }
    ],
    "meshes" : [
        {
            "name" : "\u0415\u0426 \u041f\u0430\u0448\u0435 obj",
            "primitives" : [
                {
                    "attributes" : {
                        "POSITION" : 0,
                        "NORMAL" : 1,
                        "TEXCOORD_0" : 2
                    },
                    "indices" : 3
                }
            ]
        }
    ],
    "accessors" : [
        {
            "bufferView" : 0,
            "componentType" : 5126,
            "count" : 13323,
            "max" : [
                143.1540069580078,
                0,
                0
            ],
            "min" : [
                0,
                -164.0240020751953,
                -45.05120086669922
            ],
            "type" : "VEC3"
        },
        {
            "bufferView" : 1,
            "componentType" : 5126,
            "count" : 13323,
            "type" : "VEC3"
        },
        {
            "bufferView" : 2,
            "componentType" : 5126,
            "count" : 13323,
            "type" : "VEC2"
        },
        {
            "bufferView" : 3,
            "componentType" : 5123,
            "count" : 27039,
            "type" : "SCALAR"
        }
    ],
    "bufferViews" : [
        {
            "buffer" : 0,
            "byteLength" : 159876,
            "byteOffset" : 0
        },
        {
            "buffer" : 0,
            "byteLength" : 159876,
            "byteOffset" : 159876
        },
        {
            "buffer" : 0,
            "byteLength" : 106584,
            "byteOffset" : 319752
        },
        {
            "buffer" : 0,
            "byteLength" : 54078,
            "byteOffset" : 426336
        }
    ],
    "buffers" : [
        {
            "byteLength" : 480416,
            "uri" : "data:application/octet-stream;base64,"
        }
    ]
}
